{"title":"Red.Dog.2011.720p.BRRip.x264.Feel-Free","uid":6858814,"size":2348687920,"categoryP":"video","categoryS":"hd___movies","magnet":"?xt=urn:btih:2df34cbc881a06cdc0e58de8875b3bd22a1aa26b&amp;dn=Red.Dog.2011.720p.BRRip.x264.Feel-Free&amp;tr=udp%3A%2F%2Ftracker.openbittorrent.com%3A80&amp;tr=udp%3A%2F%2Fopen.demonii.com%3A1337&amp;tr=udp%3A%2F%2Ftracker.coppersurfer.tk%3A6969&amp;tr=udp%3A%2F%2Fexodus.desync.com%3A6969","seeders":0,"leechers":0,"uploader":".BONE.","files":8,"time":1322806640,"description":"Genre:Comedy | Drama | Family\nLanguage:English\n &lt;a href=&quot;\nhttp://www.imdb.com/title/tt0803061/&quot; rel=&quot;nofollow&quot; target=&quot;_NEW&quot;&gt;\nhttp://www.imdb.com/title/tt0803061/&lt;/a&gt;\n\nSource:720p.BluRay.x264-aAF Thanks!\n\nFormat : MPEG-4\nFormat profile : Base Media\nCodec ID : isom\nFile size : 2.18 GiB\nDuration : 1h 32mn\nOverall bit rate : 3 385 Kbps\n\nVideo\nID : 1\nFormat : AVC\nFormat/Info : Advanced Video Codec\nFormat profile : &lt;a class=&quot;__cf_email__&quot; href=&quot;/cdn-cgi/l/email-protection&quot; data-cfemail=&quot;f8b0919f90b8b4cdd6c9&quot;&gt;[email&amp;#160;protected]&lt;/a&gt;&lt;script cf-hash='f9e31' type=&quot;text/javascript&quot;&gt;\n/* &lt;![CDATA[ */!function(){try{var t=&quot;currentScript&quot;in document?document.currentScript:function(){for(var t=document.getElementsByTagName(&quot;script&quot;),e=t.length;e--;)if(t[e].getAttribute(&quot;cf-hash&quot;))return t[e]}();if(t&amp;&amp;t.previousSibling){var e,r,n,i,c=t.previousSibling,a=c.getAttribute(&quot;data-cfemail&quot;);if(a){for(e=&quot;&quot;,r=parseInt(a.substr(0,2),16),n=2;a.length-n;n+=2)i=parseInt(a.substr(n,2),16)^r,e+=String.fromCharCode(i);e=document.createTextNode(e),c.parentNode.replaceChild(e,c)}}}catch(u){}}();/* ]]&gt; */&lt;/script&gt;\nFormat settings, CABAC : Yes\nFormat settings, ReFrames : 3 frames\nFormat settings, GOP : M=1, N=24\nCodec ID : avc1\nCodec ID/Info : Advanced Video Coding\nDuration : 1h 32mn\nBit rate mode : Variable\nBit rate : 3 000 Kbps\nMaximum bit rate : 26.4 Mbps\nWidth : 1 280 pixels\nHeight : 544 pixels\nDisplay aspect ratio : 2.35:1\nFrame rate mode : Constant\nFrame rate : 23.976 fps\nColor space : YUV\nChroma subsampling : 4:2:0\nBit depth : 8 bits\nScan type : Progressive\nBits/(Pixel*Frame) : 0.180\nStream size : 1.89 GiB (87%)\nWriting library : x264\n\n\nAudio\nID : 2\nFormat : AAC\nFormat/Info : Advanced Audio Codec\nFormat version : Version 4\nFormat profile : LC\nFormat settings, SBR : No\nCodec ID : 40\nDuration : 1h 32mn\nBit rate mode : Variable\nBit rate : 444 Kbps\nMaximum bit rate : 553 Kbps\nChannel(s) : 6 channels\nChannel positions : Front: L C R, Side: L R, LFE\nSampling rate : 48.0 KHz\nStream size : 293 MiB (13%)\n\n\nPlot:\nBased on the legendary true story of the Red Dog who united a disparate local community while roaming the Australian outback in search of his long lost master","torrent":{"xt":"urn:btih:2df34cbc881a06cdc0e58de8875b3bd22a1aa26b","amp;dn":"Red.Dog.2011.720p.BRRip.x264.Feel-Free","amp;tr":["udp%3A%2F%2Ftracker.openbittorrent.com%3A80","udp%3A%2F%2Fopen.demonii.com%3A1337","udp%3A%2F%2Ftracker.coppersurfer.tk%3A6969","udp%3A%2F%2Fexodus.desync.com%3A6969"],"infoHash":"2df34cbc881a06cdc0e58de8875b3bd22a1aa26b","infoHashBuffer":{"type":"Buffer","data":[45,243,76,188,136,26,6,205,192,229,141,232,135,91,59,210,42,26,162,107]},"announce":[],"urlList":[]}}